<?xml version="1.0" encoding="UTF-8"?>
<svg id="Camada_1" data-name="Camada 1" xmlns="http://www.w3.org/2000/svg" viewBox="0 0 1920 1080">
  <rect x="1495" y="455.12" width="55.74" height="55.74"/>
  <rect x="1495" y="680.61" width="55.74" height="55.74"/>
  <rect x="1720.75" y="680.61" width="55.74" height="55.74"/>
  <rect x="1720.75" y="455.12" width="55.74" height="55.74"/>
  <rect x="1608" y="343.64" width="55.74" height="55.74"/>
  <path d="M931.52,624.87c.01,18.55-.02,37.19,0,55.74,18.55.02,37.19-.01,55.74,0v55.74h-55.74c-.01-18.55.02-37.19,0-55.74-18.55-.02-37.19.02-55.74,0,.02-18.55-.01-37.19,0-55.74h55.74Z"/>
  <path d="M761.76,569.13c-.02,18.55.01,37.19,0,55.74h-55.74c-.02-18.55.01-37.19,0-55.74h55.74Z"/>
  <path d="M650.28,680.61c-.02,18.55.01,37.19,0,55.74h-58.27c-.01-18.55.02-37.19,0-55.74,19.39-.02,38.88.02,58.27,0Z"/>
  <path d="M650.28,569.13c-.02,18.55.01,37.19,0,55.74h-58.27c-.01-18.55.02-37.19,0-55.74h58.27Z"/>
  <path d="M761.76,680.61c-.02,18.55.01,37.19,0,55.74h-55.74c-.01-18.55.02-37.19,0-55.74,18.55-.01,37.19,0,55.74,0Z"/>
  <path d="M875.78,569.13c.02-18.55-.01-37.19,0-55.74h55.74c.01,18.55-.02,37.19,0,55.74h-55.74Z"/>
  <path d="M761.76,569.13c.02-18.55-.01-37.19,0-55.74h55.74c.01,18.55-.02,37.19,0,55.74h-55.74Z"/>
  <path d="M817.5,624.87c.01,18.55-.02,37.19,0,55.74-18.55-.01-37.19,0-55.74,0,.02-18.55-.01-37.19,0-55.74h55.74Z"/>
  <path d="M875.78,569.13c-.02,18.55.01,37.19,0,55.74h-58.27c-.01-18.55.02-37.19,0-55.74h58.27Z"/>
  <path d="M706.02,624.87c.02,18.55-.02,37.19,0,55.74-18.55.01-37.19-.02-55.74,0,.02-18.55-.01-37.19,0-55.74h55.74Z"/>
  <path d="M592,624.88c.03,18.54,0,37.19,0,55.74-18.54,0-37.19-.03-55.74,0v55.74H143.51v-388.53l.03-4.19h392.72v55.74c18.54,0,37.19-.03,55.74,0v55.74c-18.54-.03-37.19.03-55.74,0v58.26h55.74c.03,18.54,0,37.19,0,55.74h-55.74v55.77h55.74Z"/>
  <path d="M875.78,680.61c-.02,18.55.01,37.19,0,55.74h-58.27c-.01-18.55.02-37.19,0-55.74,19.39.01,38.88-.03,58.27,0Z"/>
  <path d="M706.02,399.38c-.02,18.55.02,37.19,0,55.74-18.55-.02-37.19.01-55.74,0-.03-18.55.04-37.19,0-55.74,18.55.02,37.19-.02,55.74,0Z"/>
  <path d="M931.52,569.13h55.74v55.74h-55.74c-.01-18.55.02-37.19,0-55.74Z"/>
  <path d="M706.02,399.38c.02-18.55-.01-37.19,0-55.74h55.74c.01,18.55-.02,37.19,0,55.74-18.55-.02-37.19.02-55.74,0Z"/>
  <path d="M592.01,399.38c.02-18.55-.01-37.19,0-55.74h58.27c.03,18.55-.04,37.19,0,55.74-19.39-.02-38.88.02-58.27,0Z"/>
  <rect x="1043" y="343.64" width="55.74" height="55.74"/>
  <rect x="1157.01" y="343.64" width="55.74" height="55.74"/>
  <rect x="1268.49" y="343.64" width="55.74" height="55.74"/>
  <rect x="1382.5" y="343.64" width="55.74" height="55.74"/>
  <rect x="1157.01" y="455.12" width="55.74" height="55.74"/>
  <rect x="1043" y="455.12" width="55.74" height="55.74"/>
  <rect x="761.76" y="399.38" width="55.74" height="55.74"/>
  <rect x="706.02" y="456.39" width="55.74" height="55.74"/>
  <rect x="593.27" y="456.39" width="55.74" height="55.74"/>
  <rect x="650.28" y="512.13" width="55.74" height="55.74"/>
  <rect x="818.77" y="456.39" width="55.74" height="55.74"/>
  <rect x="874.51" y="399.38" width="55.74" height="55.74"/>
  <rect x="930.25" y="343.64" width="55.74" height="55.74"/>
  <rect x="931.51" y="456.39" width="55.74" height="55.74"/>
  <rect x="817.5" y="343.64" width="55.74" height="55.74"/>
  <rect x="1043" y="680.61" width="55.74" height="55.74"/>
  <rect x="1268.49" y="455.12" width="55.74" height="55.74"/>
  <rect x="1043" y="569.13" width="55.74" height="55.74"/>
  <rect x="1157.01" y="569.13" width="55.74" height="55.74"/>
  <rect x="1268.49" y="569.13" width="55.74" height="55.74"/>
  <rect x="1382.5" y="569.13" width="55.74" height="55.74"/>
  <rect x="1608" y="569.13" width="55.74" height="55.74"/>
  <rect x="1157.01" y="680.61" width="55.74" height="55.74"/>
  <rect x="1268.49" y="680.61" width="55.74" height="55.74"/>
</svg>